<svg width="24" height="25" viewBox="0 0 24 25" fill="none" xmlns="http://www.w3.org/2000/svg">
<g id="dzen" clip-path="url(#clip0_2281_890)">
<path id="Vector" d="M23.4704 11.9679C23.4724 11.9679 23.474 11.9679 23.4761 11.9679C23.6223 11.9679 23.7616 11.9066 23.8607 11.7992C23.9613 11.6902 24.011 11.544 23.9979 11.3963C23.4719 5.6108 18.8914 1.02874 13.1054 0.501688C12.9587 0.490162 12.811 0.537838 12.702 0.638951C12.5931 0.739541 12.5323 0.881519 12.5338 1.02978C12.625 8.7186 13.6393 11.8605 23.4704 11.9679ZM23.4704 13.0303C13.6393 13.1377 12.6255 16.2796 12.5344 23.9684C12.5328 24.1167 12.5936 24.2586 12.7025 24.3592C12.8 24.4488 12.9273 24.4986 13.0583 24.4986C13.074 24.4986 13.0902 24.4981 13.106 24.4965C18.892 23.9695 23.4724 19.3879 23.9979 13.6019C24.011 13.4542 23.9618 13.308 23.8607 13.199C23.7595 13.0901 23.6186 13.0361 23.4704 13.0303ZM10.8595 0.504308C5.09179 1.04655 0.525965 5.62757 0.00258419 11.3973C-0.0105134 11.5451 0.0387336 11.6912 0.139847 11.8002C0.238865 11.9076 0.378747 11.9684 0.524393 11.9684C0.526488 11.9684 0.528584 11.9684 0.53068 11.9684C10.3293 11.8557 11.3409 8.71546 11.4331 1.03188C11.4347 0.883615 11.3734 0.741113 11.2644 0.640523C11.1544 0.539933 11.0072 0.490686 10.8595 0.504308ZM0.530156 13.0298C0.367222 13.0115 0.239389 13.089 0.139323 13.198C0.0387337 13.307 -0.0110373 13.4531 0.00206033 13.6009C0.525441 19.3706 5.09179 23.9516 10.8595 24.4939C10.8757 24.4955 10.8925 24.496 10.9087 24.496C11.0397 24.496 11.1665 24.4467 11.2639 24.3571C11.3729 24.2566 11.4342 24.1141 11.4326 23.9658C11.3404 16.2827 10.3293 13.1425 0.530156 13.0298Z" fill="white"/>
</g>
<defs>
<clipPath id="clip0_2281_890">
<rect width="24" height="24" fill="white" transform="translate(0 0.5)"/>
</clipPath>
</defs>
</svg>
