<svg width="30" height="37" viewBox="0 0 30 37" fill="none" xmlns="http://www.w3.org/2000/svg">
<path d="M28.5 15.5C28.5 26 15 35 15 35C15 35 1.5 26 1.5 15.5C1.5 11.9196 2.92232 8.4858 5.45406 5.95406C7.9858 3.42232 11.4196 2 15 2C18.5804 2 22.0142 3.42232 24.5459 5.95406C27.0777 8.4858 28.5 11.9196 28.5 15.5Z" stroke="#FF213C" stroke-width="3" stroke-linecap="round" stroke-linejoin="round"/>
<path d="M15 19C17.4853 19 19.5 16.9853 19.5 14.5C19.5 12.0147 17.4853 10 15 10C12.5147 10 10.5 12.0147 10.5 14.5C10.5 16.9853 12.5147 19 15 19Z" stroke="#FF213C" stroke-width="3" stroke-linecap="round" stroke-linejoin="round"/>
</svg>
