<svg width="24" height="25" viewBox="0 0 24 25" fill="none" xmlns="http://www.w3.org/2000/svg">
<g id="tg">
<path id="Vector" d="M12 0.5C9.62663 0.5 7.30655 1.20379 5.33316 2.52236C3.35977 3.84094 1.8217 5.71508 0.913451 7.9078C0.00519941 10.1005 -0.232441 12.5133 0.230582 14.8411C0.693605 17.1689 1.83649 19.307 3.51472 20.9853C5.19295 22.6635 7.33115 23.8064 9.65892 24.2694C11.9867 24.7324 14.3995 24.4948 16.5922 23.5865C18.7849 22.6783 20.6591 21.1402 21.9776 19.1668C23.2962 17.1934 24 14.8734 24 12.5C24.0001 10.9241 23.6898 9.36361 23.0868 7.90764C22.4838 6.45168 21.5999 5.12875 20.4856 4.01443C19.3712 2.9001 18.0483 2.01619 16.5924 1.41318C15.1364 0.810169 13.5759 0.499869 12 0.5ZM15.8154 18.683C15.7705 18.795 15.7022 18.8961 15.615 18.9795C15.5278 19.0629 15.4238 19.1267 15.3099 19.1667C15.1961 19.2066 15.075 19.2218 14.9548 19.2111C14.8346 19.2004 14.7181 19.1642 14.613 19.1048L11.3554 16.5735L9.26463 18.5024C9.21611 18.5382 9.15936 18.5613 9.0996 18.5695C9.03984 18.5776 8.97898 18.5706 8.92263 18.5491L9.32343 14.963L9.33626 14.9731L9.34445 14.9023C9.34445 14.9023 15.2065 9.56534 15.4453 9.33795C15.687 9.11115 15.6073 9.06195 15.6073 9.06195C15.621 8.78531 15.1734 9.06195 15.1734 9.06195L7.4064 14.0588L4.17182 12.9572C4.17182 12.9572 3.67502 12.779 3.62822 12.3872C3.57902 11.9984 4.188 11.7872 4.188 11.7872L17.0484 6.67819C17.0484 6.67819 18.1056 6.20716 18.1056 6.9872L15.8154 18.683Z" fill="white"/>
</g>
</svg>
