<svg width="24" height="25" viewBox="0 0 24 25" fill="none" xmlns="http://www.w3.org/2000/svg">
<g id="&#240;&#159;&#166;&#134; icon &#34;vk with circle&#34;">
<path id="Vector" d="M12 0.5C5.3725 0.5 0 5.8725 0 12.5C0 19.1275 5.3725 24.5 12 24.5C18.6275 24.5 24 19.1275 24 12.5C24 5.8725 18.6275 0.5 12 0.5ZM16.615 14.0388C16.615 14.0388 17.6763 15.0863 17.9375 15.5725C17.945 15.5825 17.9487 15.5925 17.9513 15.5975C18.0575 15.7762 18.0825 15.915 18.03 16.0188C17.9425 16.1912 17.6425 16.2763 17.54 16.2838H15.665C15.535 16.2838 15.2625 16.25 14.9325 16.0225C14.6788 15.845 14.4288 15.5538 14.185 15.27C13.8213 14.8475 13.5063 14.4825 13.1888 14.4825C13.1484 14.4824 13.1083 14.4888 13.07 14.5013C12.83 14.5788 12.5225 14.9213 12.5225 15.8337C12.5225 16.1188 12.2975 16.2825 12.1388 16.2825H11.28C10.9875 16.2825 9.46375 16.18 8.11375 14.7563C6.46125 13.0125 4.97375 9.515 4.96125 9.4825C4.8675 9.25625 5.06125 9.135 5.2725 9.135H7.16625C7.41875 9.135 7.50125 9.28875 7.55875 9.425C7.62625 9.58375 7.87375 10.215 8.28 10.925C8.93875 12.0825 9.3425 12.5525 9.66625 12.5525C9.72696 12.5518 9.78658 12.5363 9.84 12.5075C10.2625 12.2725 10.1838 10.7662 10.165 10.4537C10.165 10.395 10.1637 9.78 9.9475 9.485C9.7925 9.27125 9.52875 9.19 9.36875 9.16C9.43351 9.07064 9.51883 8.99818 9.6175 8.94875C9.9075 8.80375 10.43 8.7825 10.9488 8.7825H11.2375C11.8 8.79 11.945 8.82625 12.1488 8.8775C12.5613 8.97625 12.57 9.2425 12.5338 10.1538C12.5225 10.4125 12.5113 10.705 12.5113 11.05C12.5113 11.125 12.5075 11.205 12.5075 11.29C12.495 11.7537 12.48 12.28 12.8075 12.4963C12.8502 12.523 12.8996 12.5373 12.95 12.5375C13.0638 12.5375 13.4062 12.5375 14.3337 10.9463C14.6198 10.4341 14.8684 9.90185 15.0775 9.35375C15.0963 9.32125 15.1513 9.22125 15.2163 9.1825C15.2642 9.15804 15.3174 9.14561 15.3713 9.14625H17.5975C17.84 9.14625 18.0063 9.1825 18.0375 9.27625C18.0925 9.425 18.0275 9.87875 17.0112 11.255L16.5575 11.8538C15.6363 13.0613 15.6363 13.1225 16.615 14.0388Z" fill="white"/>
</g>
</svg>
