<svg width="51" height="66" viewBox="0 0 51 66" fill="none" xmlns="http://www.w3.org/2000/svg">
<path d="M43.5 20.5L42.5 20.5L42.5 20.5L43.5 20.5ZM42.793 52.2071C43.1835 52.5976 43.8166 52.5976 44.2072 52.2071L50.5711 45.8431C50.9616 45.4526 50.9616 44.8194 50.5711 44.4289C50.1806 44.0384 49.5474 44.0384 49.1569 44.4289L43.5001 50.0858L37.8432 44.4289C37.4527 44.0384 36.8195 44.0384 36.429 44.429C36.0384 44.8195 36.0385 45.4526 36.429 45.8432L42.793 52.2071ZM3.00003 5L27 5L27 3L3.00003 3L3.00003 5ZM42.5 20.5L42.5001 51.5L44.5001 51.5L44.5 20.5L42.5 20.5ZM27 5C35.5604 5 42.5 11.9396 42.5 20.5L44.5 20.5C44.5 10.835 36.6649 3 27 3L27 5Z" fill="black"/>
<rect width="8" height="8" rx="4" fill="#FF213C"/>
</svg>
