<svg width="52" height="66" viewBox="0 0 52 66" fill="none" xmlns="http://www.w3.org/2000/svg">
<path d="M8.00002 20.5L9.00002 20.5L9.00002 20.5L8.00002 20.5ZM8.70705 52.2071C8.31652 52.5976 7.68336 52.5976 7.29283 52.2071L0.928888 45.8431C0.538364 45.4526 0.538366 44.8194 0.928892 44.4289C1.31942 44.0384 1.95258 44.0384 2.3431 44.4289L7.99994 50.0858L13.6568 44.4289C14.0473 44.0384 14.6805 44.0384 15.071 44.429C15.4616 44.8195 15.4615 45.4526 15.071 45.8432L8.70705 52.2071ZM48.5 5L24.5 5L24.5 3L48.5 3L48.5 5ZM9.00002 20.5L8.99994 51.5L6.99994 51.5L7.00002 20.5L9.00002 20.5ZM24.5 5C15.9396 5 9.00003 11.9396 9.00002 20.5L7.00002 20.5C7.00003 10.835 14.8351 3 24.5 3L24.5 5Z" fill="black"/>
<rect width="8" height="8" rx="4" transform="matrix(-1 0 0 1 51.5 0)" fill="#FF213C"/>
</svg>
