<svg width="151" height="39" viewBox="0 0 151 39" fill="none" xmlns="http://www.w3.org/2000/svg">
<path d="M12 18.5C11.1716 18.5 10.5 19.1716 10.5 20C10.5 20.8284 11.1716 21.5 12 21.5V18.5ZM150.061 21.0607C150.646 20.4749 150.646 19.5251 150.061 18.9393L140.515 9.3934C139.929 8.80761 138.979 8.80761 138.393 9.3934C137.808 9.97918 137.808 10.9289 138.393 11.5147L146.879 20L138.393 28.4853C137.808 29.0711 137.808 30.0208 138.393 30.6066C138.979 31.1924 139.929 31.1924 140.515 30.6066L150.061 21.0607ZM12 21.5H149V18.5H12V21.5Z" fill="#222222"/>
<rect x="2" y="15" width="10" height="10" rx="5" fill="#FF213C"/>
</svg>
